<svg xmlns="http://www.w3.org/2000/svg" xmlns:xlink="http://www.w3.org/1999/xlink" width="24" height="24" viewBox="0 0 24 24"><defs><path id="jkgca" d="M418.6 959.949a2.4 2.4 0 0 0 2.4-2.4v-.742h-16v.742a2.4 2.4 0 0 0 2.4 2.4zm6.4-5.234v2.094h-2v1.047c0 1.98-1.321 3.633-3.086 4.069l1.586 2.215H419l-1.5-2.095h-9l-1.5 2.095h-2.5l1.586-2.215c-1.765-.436-3.086-2.09-3.086-4.069v-1.047h-2v-2.094h20v-10.473c0-.577-.449-1.047-1-1.047h-5v1.047h-2V941.1h7c1.654 0 3 1.41 3 3.142v10.473zm-7-2.095c-.553 0-1-.468-1-1.047 0-.58.447-1.048 1-1.048.553 0 1 .469 1 1.048 0 .579-.447 1.047-1 1.047zm-8 0c-.553 0-1-.468-1-1.047 0-.58.447-1.048 1-1.048.553 0 1 .469 1 1.048 0 .579-.447 1.047-1 1.047zm4-2.095c.553 0 1 .469 1 1.048 0 .579-.447 1.047-1 1.047-.553 0-1-.468-1-1.047 0-.58.447-1.048 1-1.048zm2-2.618c.553 0 1 .468 1 1.048 0 .579-.447 1.047-1 1.047-.553 0-1-.468-1-1.047 0-.58.447-1.048 1-1.048zm-4 2.095c-.553 0-1-.468-1-1.047 0-.58.447-1.048 1-1.048.553 0 1 .468 1 1.048 0 .579-.447 1.047-1 1.047zm2-4.713c.553 0 1 .468 1 1.047 0 .58-.447 1.048-1 1.048-.553 0-1-.469-1-1.048 0-.579.447-1.047 1-1.047z"/></defs><g><g transform="translate(-401 -941)"><g><use fill="#212121" xlink:href="#jkgca"/></g></g></g></svg>