<svg xmlns="http://www.w3.org/2000/svg" xmlns:xlink="http://www.w3.org/1999/xlink" width="23" height="19" viewBox="0 0 23 19"><defs><path id="phewa" d="M875.243 5892h-19.837c-.3 0-.4-.512-.4-.833v-15.801c0-.133-.03-.256.04-.354.027-.037.02.055.054.026.094-.082.177-.006.306-.006h19.837c.3 0 .4.013.4.334v15.801c0 .321-.1.833-.4.833z"/><path id="phewb" d="M855 5875l8.094 8.73c1.27 1.32 3.298 1.31 4.557-.02l7.992-8.65"/><path id="phewc" d="M874.999 5892.004l-5.429-9.714"/><path id="phewd" d="M855 5892.004l7.286-9.714"/></defs><g><g transform="translate(-854 -5874)"><g><use fill="#fff" fill-opacity="0" stroke="#f1c933" stroke-miterlimit="50" stroke-width="2" xlink:href="#phewa"/></g><g><use fill="#fff" fill-opacity="0" stroke="#f1c933" stroke-miterlimit="50" stroke-width="2" xlink:href="#phewb"/></g><g><use fill="#fff" fill-opacity="0" stroke="#f1c933" stroke-miterlimit="50" stroke-width="2" xlink:href="#phewc"/></g><g><use fill="#fff" fill-opacity="0" stroke="#f1c933" stroke-miterlimit="50" stroke-width="2" xlink:href="#phewd"/></g></g></g></svg>