<svg xmlns="http://www.w3.org/2000/svg" xmlns:xlink="http://www.w3.org/1999/xlink" width="20" height="20" viewBox="0 0 20 20"><defs><path id="sqv0a" d="M93.556 948a4.84 4.84 0 0 1-2.5-.674 5.097 5.097 0 0 1-1.823-1.811 4.768 4.768 0 0 1-.677-2.485c0-.898.225-1.737.677-2.515a5.024 5.024 0 0 1 1.823-1.841 4.84 4.84 0 0 1 2.5-.674 4.84 4.84 0 0 1 2.5.674 5.024 5.024 0 0 1 1.822 1.841c.452.778.678 1.617.678 2.515 0 .898-.226 1.726-.678 2.485a5.097 5.097 0 0 1-1.822 1.811 4.84 4.84 0 0 1-2.5.674zM93 950.222c1.238 0 2.595.187 4.072.56 1.677.436 3.034 1.017 4.072 1.742 1.237.85 1.856 1.805 1.856 2.863V958H83v-2.613c0-1.058.619-2.012 1.856-2.863 1.038-.725 2.395-1.306 4.072-1.742 1.477-.373 2.834-.56 4.072-.56z"/></defs><g><g transform="translate(-83 -938)"><use fill="#003153" xlink:href="#sqv0a"/></g></g></svg>