<svg xmlns="http://www.w3.org/2000/svg" xmlns:xlink="http://www.w3.org/1999/xlink" width="100" height="100" viewBox="0 0 100 100"><defs><path id="ww1ta" d="M281.966 4410.777c-12.526 0-23.866-5.119-32.07-13.39a45.796 45.796 0 0 1-13.291-32.34 45.757 45.757 0 0 1 13.289-32.323c8.204-8.27 19.544-13.407 32.07-13.407 12.529 0 23.869 5.12 32.073 13.391a45.786 45.786 0 0 1 13.289 32.322 45.796 45.796 0 0 1-13.289 32.34c-8.204 8.287-19.529 13.405-32.072 13.405zm-6.564-95.697l-8.661 4.984-9.914 1.288-6.103 7.931-8.677 5-2.594 9.661-6.101 7.933 1.287 9.915-2.609 9.711 5 8.679 1.288 9.915 7.932 6.102 5 8.678 9.661 2.61 7.932 6.102 9.915-1.289 9.661 2.61 8.678-5 9.916-1.288 6.101-7.931 8.679-5 2.609-9.661 6.101-7.933-1.287-9.915 2.61-9.661-5-8.679-1.288-9.914-7.931-6.101-5-8.678-9.663-2.61-7.931-6.104-9.916 1.287z"/><path id="ww1tb" d="M316.075 4377.05h-.68a36.018 36.018 0 0 1-8.204 12.731c-6.491 6.477-15.442 10.496-25.29 10.496-9.866 0-18.815-4.019-25.291-10.496a35.827 35.827 0 0 1-8.223-12.732h-.694c5.137 13.919 18.528 23.872 34.208 23.872s29.053-9.953 34.173-23.872m6.397 0h-.677a42.115 42.115 0 0 1-10.339 17.02c-7.577 7.58-18.052 12.274-29.577 12.274-11.525 0-22-4.696-29.576-12.274a41.818 41.818 0 0 1-10.34-17.02h-.677c5.375 17.326 21.543 29.938 40.61 29.938 19.05 0 35.22-12.612 40.577-29.938m-40.616-49.01c-16.081 0-29.774 10.493-34.588 24.989h.695a35.948 35.948 0 0 1 8.608-13.852c6.476-6.476 15.423-10.494 25.285-10.494 9.863 0 18.81 4.017 25.285 10.494a35.823 35.823 0 0 1 8.608 13.852h.695c-4.796-14.496-18.472-24.992-34.588-24.992m.005-6.066c-19.458 0-35.915 13.173-40.931 31.058h.678a42.056 42.056 0 0 1 10.677-18.14c7.578-7.578 18.051-12.273 29.578-12.273 11.523 0 22.015 4.695 29.575 12.273a41.89 41.89 0 0 1 10.678 18.14h.678c-4.984-17.902-21.44-31.058-40.933-31.058"/><path id="ww1tc" d="M319.716 4352.327a.667.667 0 0 1-.171.422.623.623 0 0 1-.427.17.631.631 0 0 1-.408-.17.585.585 0 0 1-.172-.423.66.66 0 0 1 .172-.407.594.594 0 0 1 .835 0c.108.108.169.254.17.407zm-.832-2.41c.12.29-.034.646-.323.782a.845.845 0 0 1-.205.033.607.607 0 0 1-.563-.372.592.592 0 0 1 .776-.764c.145.06.26.176.317.322zm-1.187-1.406a.636.636 0 0 1-.24.052.596.596 0 0 1-.256-1.136c.291-.134.648 0 .785.288.136.3.008.652-.29.796zm-1.027-2.101a.541.541 0 0 1-.276.069.629.629 0 0 1-.531-.305.58.58 0 0 1 .24-.797.6.6 0 0 1 .807.236.587.587 0 0 1-.24.797zm-.876 37.322c.137-.288.51-.39.802-.238a.568.568 0 0 1 .221.797.565.565 0 0 1-.512.306.606.606 0 0 1-.291-.068.568.568 0 0 1-.22-.797zm-.25-39.355a.838.838 0 0 1-.324.084.573.573 0 0 1-.495-.271.564.564 0 0 1 .189-.814.575.575 0 0 1 .819.187.596.596 0 0 1-.189.814zm-.919 41.305a.57.57 0 0 1 .818-.169c.27.18.346.54.171.813a.617.617 0 0 1-.495.271c-.12 0-.222-.051-.324-.103a.591.591 0 0 1-.171-.812zm-.36-43.264a.637.637 0 0 1-.361.102.555.555 0 0 1-.481-.256.594.594 0 0 1 .137-.818.62.62 0 0 1 .84.137.595.595 0 0 1-.136.835zm-.927 45.145a.586.586 0 0 1 .84-.134.577.577 0 0 1 .138.812.607.607 0 0 1-.497.255.53.53 0 0 1-.343-.12.577.577 0 0 1-.138-.813zm-.445-47.034a.52.52 0 0 1-.38.136.634.634 0 0 1-.462-.22c-.207-.273-.172-.627.086-.83.273-.205.636-.17.842.084h.015c.195.26.15.625-.102.831zm-.963 48.814a.58.58 0 0 1 .835-.067c.25.21.28.581.07.83a.595.595 0 0 1-.982-.135.588.588 0 0 1 .077-.628zm-.529-50.594a.577.577 0 0 1-.395.153c-.171 0-.344-.051-.446-.186a.57.57 0 0 1 .034-.831.602.602 0 0 1 1.003.457.57.57 0 0 1-.197.407zm-.977 52.305a.605.605 0 0 1 .892.814.658.658 0 0 1-.446.187.604.604 0 0 1-.412-.17.584.584 0 0 1-.034-.83zm-.64-54a.967.967 0 0 1-.428.187.598.598 0 0 1-.41-.17.572.572 0 0 1-.015-.831c.227-.234.6-.24.836-.016a.586.586 0 0 1 .016.831zm-.954 55.628a.616.616 0 0 1 .85.017.572.572 0 0 1-.016.83.669.669 0 0 1-.408.17.558.558 0 0 1-.444-.187.572.572 0 0 1 .018-.83zm-.742-57.255a.501.501 0 0 1-.442.203.603.603 0 0 1-.393-.151h.018a.588.588 0 0 1-.07-.832.595.595 0 0 1 .817-.029.586.586 0 0 1 .07.81zm-.953 58.78a.55.55 0 0 1 .817.069.573.573 0 0 1-.066.83.6.6 0 0 1-.377.135.58.58 0 0 1-.444-.203.573.573 0 0 1 .07-.831zm-1.32-60.017a.537.537 0 0 1-.358-.12c-.256-.202-.324-.574-.12-.829a.619.619 0 0 1 .835-.119.61.61 0 0 1 .12.83.72.72 0 0 1-.477.238zm-.494 61.427a.582.582 0 0 1 .836.118.613.613 0 0 1-.12.836.566.566 0 0 1-.358.12.574.574 0 0 1-.478-.24.596.596 0 0 1 .12-.834zm-.91-63.047c-.1.187-.29.256-.494.274a.597.597 0 0 1-.494-.922.597.597 0 0 1 .818-.17c.27.182.345.545.17.818zm-.954 64.348a.585.585 0 0 1 .82.172.575.575 0 0 1-.172.812.605.605 0 0 1-.324.102.56.56 0 0 1-.495-.255.592.592 0 0 1 .171-.831zm-.986-65.627a.622.622 0 0 1-.549.29.647.647 0 0 1-.291-.07.596.596 0 0 1-.206-.814.603.603 0 0 1 .823-.219.583.583 0 0 1 .223.814zm-.943 66.816c.275-.155.652-.069.79.219a.563.563 0 0 1-.206.796.445.445 0 0 1-.291.085.58.58 0 0 1-.514-.29.6.6 0 0 1 .221-.812zm-1.1-67.95a.592.592 0 0 1-.801.255.59.59 0 0 1-.256-.797.614.614 0 0 1 .801-.255.59.59 0 0 1 .257.797zm-.916 69.015a.589.589 0 0 1 .79.272.576.576 0 0 1-.257.797.694.694 0 0 1-.258.05.59.59 0 0 1-.532-.322.576.576 0 0 1 .256-.797zm-1.167-70.06a.602.602 0 0 1-.546.376c-.085 0-.154-.035-.239-.05-.29-.14-.443-.496-.308-.787a.593.593 0 0 1 .786-.307.582.582 0 0 1 .307.768zm-.12 71.353a.582.582 0 0 1-.306.767h-.019a.507.507 0 0 1-.22.052.612.612 0 0 1-.552-.823.582.582 0 0 1 .313-.32c.307-.12.648 0 .785.324zm-2.033-72.241a.591.591 0 0 1-.563.373c-.068 0-.135-.018-.204-.034a.585.585 0 0 1-.359-.745.59.59 0 0 1 .769-.34.585.585 0 0 1 .357.746zm-.865 72.762a.616.616 0 0 1 .772.374.598.598 0 0 1-.36.745 1.04 1.04 0 0 1-.206.035.596.596 0 0 1-.548-.847.595.595 0 0 1 .342-.306zm-1.338-73.524a.622.622 0 0 1-.561.406.582.582 0 0 1-.486-.223.574.574 0 0 1-.096-.523.59.59 0 0 1 .734-.406h.016c.315.099.49.432.393.745zm-.834 74.221a.567.567 0 0 1 .717.41c.1.306-.087.631-.393.733-.052 0-.12.018-.172.018a.615.615 0 0 1-.563-.428.607.607 0 0 1 .41-.733zm-1.401-74.882c-.087.27-.309.456-.582.456a.427.427 0 0 1-.135-.016.582.582 0 0 1-.444-.712.578.578 0 0 1 .716-.44.593.593 0 0 1 .443.712zm-.8 75.457a.62.62 0 0 1 .722.441.603.603 0 0 1-.446.713c-.035.015-.085.015-.136.015a.584.584 0 0 1-.585-.458c-.086-.32.12-.626.446-.71zm-1.49-75.95a.618.618 0 0 1-.58.491c-.034 0-.067 0-.102-.016a.574.574 0 0 1-.478-.678c.035-.322.359-.525.683-.475a.585.585 0 0 1 .476.678zm-1.225 77.085c-.07-.305.153-.61.48-.677a.6.6 0 0 1 .686.49.591.591 0 0 1-.48.679h-.103a.588.588 0 0 1-.583-.492zm-1.079-77.457c-.034.305-.29.508-.597.526h-.052a.59.59 0 0 1-.528-.661.563.563 0 0 1 .647-.51.583.583 0 0 1 .529.645zm-1.212 77.746c-.033-.322.189-.594.53-.663a.59.59 0 0 1 .12 1.172c-.018 0-.052.016-.068.016a.588.588 0 0 1-.582-.525zm-1.741-77.415a.606.606 0 0 1-.563-.632.604.604 0 0 1 .632-.563.616.616 0 0 1 .563.632.609.609 0 0 1-.632.563zm-.562 77.589a.577.577 0 0 1 .568-.614h.016c.314.005.57.252.585.564a.59.59 0 0 1-.533.613h-.034a.6.6 0 0 1-.602-.563zm-1.316.443a.546.546 0 0 1-.41.188.673.673 0 0 1-.425-.171.591.591 0 0 1-.172-.426.673.673 0 0 1 .172-.426c.237-.205.63-.205.835.017.107.11.169.256.17.409a.596.596 0 0 1-.17.409zm0-78.278a.649.649 0 0 1-.444.169.631.631 0 0 1-.409-.17.595.595 0 1 1 .852 0zm-2.152-.386a.594.594 0 0 1-.562.632h-.034a.612.612 0 0 1-.598-.563.594.594 0 0 1 .565-.632.605.605 0 0 1 .629.563zM279 4403.783c.017-.322.289-.559.63-.559a.614.614 0 0 1 .565.627.608.608 0 0 1-.598.559h-.035c-.323-.033-.578-.305-.562-.627zm-1.146-77.982c.036.321-.187.609-.545.66h-.05a.606.606 0 0 1-.598-.525.606.606 0 0 1 .528-.66.619.619 0 0 1 .665.523zm-2.303 77.597c-.036.276-.273.48-.582.511h-.102v-.015a.585.585 0 0 1-.478-.683c.035-.341.359-.545.683-.494a.585.585 0 0 1 .478.681zm-.001-77.288a.602.602 0 0 1-.494.682h-.104a.587.587 0 0 1-.578-.495.607.607 0 0 1 .493-.681.61.61 0 0 1 .683.494zm-2.27 76.86c-.07.271-.291.44-.58.474-.052 0-.103-.017-.137-.017v-.017a.603.603 0 0 1-.444-.711.59.59 0 0 1 .717-.44c.316.08.51.394.442.71zm-.018-76.441a.564.564 0 0 1-.46.695c-.035.017-.085.017-.137.017-.256 0-.511-.17-.563-.44a.575.575 0 0 1 .443-.713.596.596 0 0 1 .717.44zm-2.21 75.889a.593.593 0 0 1-.585.424c-.052 0-.12 0-.17-.016a.585.585 0 0 1-.396-.734.586.586 0 0 1 .737-.409.606.606 0 0 1 .412.733zm-.027-75.313c.08.313-.1.632-.409.73-.052 0-.12.016-.171.016a.614.614 0 0 1-.563-.424.609.609 0 0 1 .409-.728.596.596 0 0 1 .734.408zm-2.17 74.61a.624.624 0 0 1-.563.39c-.067 0-.152 0-.204-.017v-.017a.596.596 0 0 1-.359-.763.616.616 0 0 1 .77-.356.61.61 0 0 1 .356.764zm-.05-73.914c.11.304-.04.64-.341.762-.067.018-.135.03-.205.034a.59.59 0 0 1-.563-.39.575.575 0 0 1 .342-.746c.306-.109.644.04.767.34zm-2.136 73.126c-.085.222-.308.342-.528.359a.544.544 0 0 1-.24-.052.586.586 0 0 1-.306-.785.582.582 0 0 1 .768-.308.587.587 0 0 1 .306.786zm-.34-71.533a.63.63 0 0 1-.24.052.613.613 0 0 1-.545-.355c-.137-.289.017-.645.306-.781a.624.624 0 0 1 .785.306.595.595 0 0 1-.307.778zm-1.761 70.558a.55.55 0 0 1-.528.324.619.619 0 0 1-.495-.294.61.61 0 0 1-.035-.572.631.631 0 0 1 .802-.255.623.623 0 0 1 .256.797zm-.575-69.508a.597.597 0 0 1-.597-.52.601.601 0 0 1 1.156-.282.589.589 0 0 1-.284.735c-.102.033-.172.067-.275.067zm-1.492 68.465c-.104.187-.291.272-.513.307a.6.6 0 0 1-.51-.887.593.593 0 0 1 1.09.136.579.579 0 0 1-.067.444zm-.256-67.447a.361.361 0 0 1-.291.067.577.577 0 0 1-.511-.288.566.566 0 0 1 .204-.797.595.595 0 0 1 .802.22.58.58 0 0 1-.204.797zm-1.744 66.261c-.102.17-.274.257-.495.272a.565.565 0 0 1-.324-.102.582.582 0 0 1-.17-.82.582.582 0 0 1 .818-.169c.27.181.345.545.17.82zm-.206-65.033a.421.421 0 0 1-.324.085.579.579 0 0 1-.495-.256.598.598 0 0 1 .618-.906.582.582 0 0 1 .373.26.604.604 0 0 1-.172.817zm-1.71 63.737a.567.567 0 0 1-.46.238.568.568 0 0 1-.359-.12.598.598 0 0 1-.137-.829c.206-.254.58-.322.837-.119a.591.591 0 0 1 .12.83zm-.146-62.423a.59.59 0 0 1-.377.118.572.572 0 0 1-.463-.237.585.585 0 0 1 .103-.83.62.62 0 0 1 .84.117.585.585 0 0 1-.103.832zm-1.685 61c-.102.136-.272.203-.46.203a.587.587 0 0 1-.443-.966c.222-.237.58-.287.836-.069.24.216.27.58.067.832zm-.119-59.569a.6.6 0 0 1-.852-.05.594.594 0 0 1 .067-.837c.257-.222.633-.204.837.052a.579.579 0 0 1-.052.835zm-1.609 58.06a.595.595 0 0 1-.428.17.614.614 0 0 1-.408-.153.585.585 0 0 1-.016-.831c.227-.234.6-.24.836-.016a.585.585 0 0 1 .016.83zm-.086-56.5c-.1.119-.255.153-.409.153a.593.593 0 0 1-.424-.171.577.577 0 0 1 .015-.835.577.577 0 0 1 .835.017.591.591 0 0 1-.015.835zm-1.567 54.873a.595.595 0 0 1-.396.17.589.589 0 0 1-.427-.187.57.57 0 0 1 .016-.83.585.585 0 0 1 .84.033v-.016a.57.57 0 0 1-.035.83zm-.017-53.255a.554.554 0 0 1-.43.188.62.62 0 0 1-.412-.154.582.582 0 0 1-.017-.83h-.016a.584.584 0 0 1 .84-.034c.242.22.257.592.035.832zm-1.55 51.56a.663.663 0 0 1-.359.135.611.611 0 0 1-.46-.203.573.573 0 0 1 .069-.83.58.58 0 0 1 .835.068.591.591 0 0 1-.085.83zm.035-49.83a.545.545 0 0 1-.445.22.514.514 0 0 1-.374-.136.577.577 0 0 1-.103-.83.581.581 0 0 1 .835-.086.59.59 0 0 1 .087.832zm-1.493 48.017a.82.82 0 0 1-.341.119.551.551 0 0 1-.478-.255.591.591 0 0 1 .12-.831.616.616 0 0 1 .836.136.591.591 0 0 1-.137.83zm.102-46.203c-.102.151-.29.236-.495.236a.618.618 0 0 1-.34-.102.593.593 0 0 1 .41-1.074.598.598 0 0 1 .485.348.592.592 0 0 1-.06.592zm-1.424 44.305c-.102.049-.211.083-.324.101-.188 0-.376-.119-.495-.289a.557.557 0 0 1 .171-.797.572.572 0 0 1 .82.172.575.575 0 0 1-.173.813zm.178-42.407a.621.621 0 0 1-.497.27.726.726 0 0 1-.326-.084.59.59 0 1 1 .183-1.077.597.597 0 0 1 .452.077.577.577 0 0 1 .19.814zm-1.391 40.424a.495.495 0 0 1-.276.084.607.607 0 0 1-.531-.305c-.155-.289-.068-.643.223-.797a.58.58 0 0 1 .805.22.564.564 0 0 1-.221.798zm.223-38.458a.539.539 0 0 1-.516.305.595.595 0 0 1-.517-.282.58.58 0 0 1-.015-.582.6.6 0 0 1 1.095.112.58.58 0 0 1-.047.447zm-1.025 2.067a.628.628 0 0 1-.546.34.463.463 0 0 1-.256-.05.583.583 0 0 1-.29-.78c.142-.3.5-.43.802-.29.29.12.41.475.29.78zm-1.257 1.322a.574.574 0 0 1 .324.762.57.57 0 0 1-.546.374c-.067 0-.136-.035-.204-.05a.591.591 0 0 1-.341-.764.599.599 0 0 1 .769-.322zm-.575 2.34c.117.11.18.264.171.422a.523.523 0 0 1-.171.407.53.53 0 0 1-.41.172.675.675 0 0 1-.425-.172.52.52 0 0 1-.172-.407.536.536 0 0 1 .172-.423c.206-.219.615-.219.835 0zm-.865 25.474c.239-.22.617-.22.822 0a.559.559 0 0 1 .171.423.522.522 0 0 1-.17.407.591.591 0 0 1-.634.121.578.578 0 0 1-.362-.528.63.63 0 0 1 .171-.423zm.674 2.797c-.137-.29.018-.628.326-.745.146-.06.31-.06.455 0 .145.061.26.177.317.321.12.288-.033.627-.325.763a.989.989 0 0 1-.224.034.588.588 0 0 1-.549-.375zm1.203 1.389c.309-.134.666-.033.802.272.136.3.008.652-.289.797a.68.68 0 0 1-.256.05.573.573 0 0 1-.529-.338.58.58 0 0 1 .272-.781zm31.175 21.612a.572.572 0 0 1 .516.648.592.592 0 0 1-.586.528h-.068a.593.593 0 0 1-.531-.647c.033-.309.325-.546.669-.529zm39.754-20.552a.582.582 0 0 1-.293-.785.616.616 0 0 1 .807-.29c.3.143.43.5.293.801a.616.616 0 0 1-.55.324c-.087 0-.172 0-.257-.05zm.945-2.093a.619.619 0 0 1-.324-.78.569.569 0 0 1 .767-.321.57.57 0 0 1 .325.762.585.585 0 0 1-.547.372c-.067 0-.152-.017-.22-.033zm.612-2.323c-.103-.102-.189-.253-.173-.407a.602.602 0 0 1 1.013-.423c.23.23.23.6 0 .831a.682.682 0 0 1-.429.169.535.535 0 0 1-.411-.169zm6.14-22.796a1.158 1.158 0 0 1-1.119 1.153 1.114 1.114 0 0 1-1.067-.78h-81.39c-.147.465-.58.782-1.07.779-.304 0-.559-.1-.762-.288a1.116 1.116 0 0 1 0-1.695c.21-.188.481-.292.763-.289.488-.002.921.315 1.067.781h81.39a1.117 1.117 0 0 1 2.188.34zm-85.373 18.9a.884.884 0 0 1 .728-.257c.487.004.917.32 1.069.784h81.423c.146-.469.58-.787 1.069-.784a1.12 1.12 0 0 1 1.108 1.008 1.117 1.117 0 1 1-2.175.456h-81.391c-.146.469-.58.787-1.069.785-.305 0-.56-.102-.762-.29a1.123 1.123 0 0 1 0-1.702zm76.433-1.78l-.137.168h-2.89l-.134-.117.135-.188.543-.544c.087-.082.12-.218.104-.406l-.306-2.083-.188-.187h-1.462l-.12.134-.305 2.188a.446.446 0 0 0 .102.356l.442.458.204.236-.136.118h-2.295l-.119-.118.137-.203.56-.56c.12-.134.137-.32.153-.508l1.802-13.354.153-.188h.748c.102 0 .17.102.188.22l1.904 13.322c.016.204.084.424.22.543l.578.525zm-2.875-4.577l-.717-4.882h-.033l-.665 4.899.068.118h1.262zm-5.313-9.915l-.458.61a.856.856 0 0 0-.187.56v13.254c0 .134-.068.219-.204.219h-.846c-.188 0-.34-.186-.407-.49l-2.321-10.832h-.035v9.881a.716.716 0 0 0 .204.542l.542.594.136.203-.12.102h-2.625l-.12-.102.135-.203.51-.577a.856.856 0 0 0 .187-.559v-12.033a.853.853 0 0 0-.187-.56l-.51-.576-.134-.203.117-.101h2.39c.136 0 .204.134.238.337l1.814 8.527h.034v-7.458c0-.238-.051-.406-.187-.542l-.56-.594-.136-.203.12-.102h2.627l.119.102-.136.203zm-8.43 6.763c0 3.745-.255 7.847-2.665 7.847-2.395 0-2.65-4.103-2.65-7.849 0-2.864.255-7.05 2.65-7.05 2.41 0 2.665 4.185 2.665 7.05zm-1.628.016c0-4.407-.443-6.085-1.04-6.085-.577 0-1.02 1.678-1.02 6.085 0 5.17.442 6.83 1.022 6.83.595 0 1.038-1.66 1.038-6.83zm-5.726 7.53c0 .186-.067.29-.203.29h-4.89l-.12-.12.135-.187.595-.574c.154-.138.188-.324.188-.56v-12.026c0-.237-.052-.423-.186-.559l-.595-.574-.136-.188.119-.118h3.14l.119.117-.135.187-.61.576c-.155.136-.188.322-.188.56v12.468h.798c.237 0 .442-.07.526-.306l1.223-3.845.119-.136.101.136zm-7.287.31l-5.144-.016-.12-.12.135-.187.595-.575c.153-.138.188-.322.188-.56v-12.042c0-.238-.052-.424-.186-.56l-.595-.575-.136-.188.119-.119h5.16l.153.186v4.936l-.101.119-.17-.136-1.07-3.73c-.085-.255-.272-.374-.526-.374h-1.12v5.818h.44l.222-.136.696-1.392.119-.119.085.12v4.207l-.085.101-.136-.136-.681-1.441-.22-.136h-.44v6.038h1.12c.254 0 .459-.119.543-.358l1.07-3.815.135-.119.102.119v5.003l-.152.188zm-10.31-7.839c0 5.964.44 6.828 1.34 6.813 1.087 0 1.513-3.644 1.513-3.832l.152-.153c.102 0 .136.07.136.188 0 2.948-.441 4.814-2.19 4.814-2.344 0-2.599-4.544-2.599-7.849 0-2.44.102-7.05 2.599-7.05.322 0 .662.186.967.424a.49.49 0 0 0 .34.119c.085 0 .238-.085.374-.238.12-.153.271-.305.373-.305.12 0 .136.136.136.34v4.71l-.119.186c-.084 0-.136-.101-.153-.218-.237-1.663-.816-4.035-1.833-4.035-.883 0-1.037 1.897-1.037 6.085zm-3.4 7.83h-1.054c-.915 0-1.273-.594-1.273-1.272v-4.272c0-.864-.524-1.525-1.22-1.525h-.342v5.644c0 .237.052.425.188.56l.595.576.136.186-.12.119h-3.157l-.119-.12.135-.184.594-.578c.154-.134.188-.322.188-.56v-12.032c0-.237-.051-.423-.186-.56l-.595-.576-.136-.186.12-.119h2.495c2.087 0 3.156 1.085 3.156 3.679 0 2.203-.764 3.084-1.46 3.525.68.356 1.272 1.136 1.272 2.22v4.151c0 .138.086.255.188.357l.645.68.153.218zm-2.203-11.238c0-2.017-.41-2.678-1.382-2.66h-.306v5.83h.306c.973 0 1.382-.779 1.382-3.17zm-5.737 11.238v.05h-2.872l-.137-.117.137-.188.544-.544c.086-.082.119-.218.101-.406l-.304-2.083-.188-.187h-1.462l-.119.134-.305 2.188a.446.446 0 0 0 .101.356l.442.458.204.236-.136.118h-2.295l-.119-.118.137-.203.56-.56c.12-.134.136-.32.154-.508l1.818-13.354.154-.188h.746c.103 0 .172.102.188.22l1.87 13.322c.017.204.085.424.22.543l.579.525.119.187zm-2.71-4.695l-.705-4.882h-.035l-.67 4.899.07.118h1.254l.083-.135zm-6.623-2.978c.764.372 1.51 1.22 1.495 3.46 0 2.883-.917 4.256-2.546 4.256h-3.124l-.12-.118.136-.187.594-.577c.154-.136.188-.322.188-.56v-12.04c0-.238-.052-.426-.186-.56l-.595-.578-.136-.187.119-.117h2.479c2.088 0 3.156 1.27 3.156 3.679 0 2.29-.677 3.053-1.46 3.529zm-.131-3.565c0-2.017-.428-2.678-1.4-2.66h-.306v5.83h.307c.971 0 1.399-.779 1.399-3.17zm0 6.847c0-1.948-.428-2.695-1.4-2.695h-.306v6.086h.63c.871 0 1.076-.695 1.076-3.39zm55.1-19.795c-.525 1.236-1.151 1.828-1.812 1.812-.237 0-.423-.051-.56-.186a.691.691 0 0 1-.202-.509c0-.134.05-.389.151-.728.102-.34.153-.61.153-.78 0-.356-.153-.542-.44-.542a1.03 1.03 0 0 0-.56.203c-.189.13-.365.277-.525.44-.151.152-.339.39-.542.696-.204.305-.356.525-.44.677l-.406.662c-.272 0-.46-.086-.579-.237 0-.017.052-.188.188-.51.033-.084.067-.186.102-.27-.204.27-.458.525-.73.728-.508.39-1.033.594-1.575.594-.442 0-.764-.119-1-.356a1.256 1.256 0 0 1-.339-.899c0-.66.305-1.339.914-2.05.611-.712 1.205-1.069 1.831-1.069.458 0 .678.22.678.661 0 .51-.289.985-.848 1.391a3.71 3.71 0 0 1-1.83.711 1.43 1.43 0 0 0-.051.39c0 .61.287.916.865.916.424 0 .864-.187 1.322-.56.39-.323.728-.712 1-1.187.016-.032.016-.084.034-.118.135-.424.203-.78.203-1.052a.669.669 0 0 1 .508-.219c.186 0 .288.102.288.29 0 .252-.119.71-.355 1.421.831-1.253 1.575-1.898 2.253-1.898.234-.009.456.1.594.289.137.205.208.448.203.695 0 .236-.067.54-.22.916-.154.372-.22.644-.22.812 0 .272.102.407.321.407.44 0 .95-.56 1.51-1.679l.118.136zm-8.303.27v-.001zm0-.002a5.582 5.582 0 0 0 1.44-.812c.458-.355.695-.745.695-1.151 0-.17-.067-.255-.22-.255-.322 0-.694.237-1.084.71a3.797 3.797 0 0 0-.83 1.508zm-3.142-.268v-.002zm0 0c-.51 1.236-1.136 1.83-1.933 1.864-.237 0-.423-.052-.558-.188a.742.742 0 0 1-.187-.507c0-.136.05-.39.151-.728.102-.341.153-.611.153-.782 0-.354-.153-.542-.44-.542a1.032 1.032 0 0 0-.56.203c-.19.13-.365.277-.525.44-.152.154-.34.391-.542.696-.205.305-.357.525-.441.678l-.406.661c-.272 0-.46-.084-.579-.237 0-.017.07-.186.186-.508.07-.136.12-.305.188-.475l-.203.153c-.233.15-.503.232-.78.238-.18.003-.36-.032-.525-.104-.594.746-1.136 1.136-1.662 1.136-.306 0-.526-.084-.66-.27-.137-.17-.204-.408-.204-.712 0-.068.016-.136.016-.204-.22.288-.49.56-.847.83a.99.99 0 0 1 .05.356c0 .678-.27 1.27-.814 1.849-.23.258-.506.47-.813.626a2.26 2.26 0 0 1-.985.238c-.303 0-.523-.085-.625-.238a.594.594 0 0 1-.086-.322c.003-.183.05-.363.136-.525.085-.17.238-.321.44-.492.19-.159.388-.306.595-.44l.745-.458c.305-.203.56-.356.746-.475 0-.508-.238-.981-.746-1.372.356-.104.663-.333.864-.644.22-.339.322-.662.322-.967a.745.745 0 0 0-.101-.423.393.393 0 0 0-.322-.154.932.932 0 0 0-.406.12 1.27 1.27 0 0 0-.34.254c-.103.101-.203.255-.322.458-.118.203-.22.373-.289.508-.067.135-.168.339-.304.628-.22.473-.526.88-.882 1.203-.406.373-.813.558-1.203.558-.255 0-.441-.068-.577-.22a.725.725 0 0 1-.203-.524c0-.103.017-.205.034-.324-.255.35-.551.67-.881.95-.255.204-.51.305-.763.305a.766.766 0 0 1-.578-.22c-.152-.152-.219-.372-.219-.661 0-.067.016-.136.016-.203-.102.101-.203.186-.305.287-.406.39-.847.578-1.288.578-.237 0-.44-.068-.578-.187-.152-.119-.219-.29-.219-.492 0-.22.102-.56.305-1.05.203-.493.305-.832.305-1.02l-.033-.218-.052-.17-.119-.135-.118-.101-.152-.103-.136-.102a6.17 6.17 0 0 1-.831 1.594c-.355.492-.711.728-1.102.728-.44 0-.763-.169-.932-.508-.239.542-.526.983-.848 1.305-.322.322-.678.492-1.05.492a.83.83 0 0 1-.644-.255 1 1 0 0 1-.238-.676c0-.069.017-.12.017-.188-.199.267-.426.511-.678.729-.492.425-1.017.645-1.543.645a1.163 1.163 0 0 1-.883-.356c-.22-.238-.337-.594-.337-1.035 0-.712.253-1.356.763-1.965.525-.611 1.033-.916 1.61-.916.271 0 .474.084.592.236.125.166.19.37.187.578a.984.984 0 0 1-.151.56.431.431 0 0 1-.391.237c-.135 0-.238-.069-.322-.17.119-.05.203-.152.287-.34.078-.164.119-.343.12-.524 0-.186-.085-.272-.238-.272-.357 0-.746.306-1.154.932-.406.627-.61 1.186-.61 1.729 0 .593.273.898.798.898.44 0 .864-.186 1.305-.54.322-.272.594-.594.797-.985.067-.187.153-.39.255-.594a4.746 4.746 0 0 1 1.017-1.32c.408-.39.814-.578 1.22-.578.238 0 .39.086.474.237l.069-.017c.119 0 .22.052.27.153l.085.272c0 .067-.068.253-.203.575-.135.306-.204.578-.204.797 0 .39.22.594.646.594.27 0 .575-.238.931-.73.355-.475.611-.983.746-1.49l-.117-.255a.814.814 0 0 1 .168-.527c.102-.151.203-.219.288-.219.101 0 .153.085.153.255 0 .033-.017.102-.034.219-.018.103-.033.172-.033.187 0 .085.05.17.169.27.118.1.242.19.372.273.158.098.291.23.39.389.12.169.186.37.188.578 0 .253-.085.592-.272 1.015-.186.443-.272.73-.272.864 0 .22.12.34.34.34.321 0 .66-.185 1.05-.56.12-.134.238-.253.34-.372a3.4 3.4 0 0 1 .356-.83 4.57 4.57 0 0 1 1.152-1.338c.458-.391.916-.579 1.374-.579.258-.007.51.077.713.238.182.143.289.362.287.594 0 .322-.17.475-.525.475.034-.136.05-.272.05-.39 0-.407-.186-.61-.542-.61-.322 0-.661.186-1.018.56-.356.338-.66.762-.881 1.252-.22.458-.34.881-.34 1.238 0 .289.087.425.29.425.134 0 .287-.07.458-.188.173-.117.331-.253.473-.406.152-.153.324-.356.527-.61s.338-.459.44-.593l.39-.56c.287.052.44.135.44.27 0 .068-.101.29-.321.662-.22.39-.322.66-.322.864-.003.12.033.24.101.339a.333.333 0 0 0 .288.153c.203 0 .475-.153.797-.458.289-.255.594-.644.883-1.136.27-.71.54-1.253.813-1.61.272-.371.626-.559 1.084-.559a.943.943 0 0 1 .644.238.855.855 0 0 1 .256.644 1.54 1.54 0 0 1-.375 1.017 2.579 2.579 0 0 1-.914.728c.372.29.627.61.761.983.397-.28.732-.637.985-1.05.081-.259.19-.509.322-.746.272-.457.56-.695.866-.695l.218.05c-.134.119-.303.408-.49.866-.188.44-.29.812-.29 1.067 0 .425.136.644.391.644.305 0 .696-.305 1.152-.899a1.735 1.735 0 0 1-.474-.66c-.118-.27-.17-.56-.17-.848 0-.39.102-.712.288-.984a.906.906 0 0 1 .781-.406c.49 0 .746.27.746.848 0 .577-.238 1.203-.73 1.932a.92.92 0 0 0 .425.103c.234.001.463-.064.66-.188.178-.1.324-.247.424-.423l.052-.153c.134-.424.203-.78.203-1.052a.646.646 0 0 1 .508-.219c.186 0 .288.102.288.29 0 .252-.118.71-.355 1.421.831-1.253 1.575-1.898 2.254-1.898.233-.009.456.1.593.289.138.205.21.448.204.695 0 .236-.068.54-.22.916-.152.372-.221.644-.221.812 0 .272.103.407.322.407.44 0 .931-.56 1.51-1.679zm-10.864 1.998l-.664.424-.663.404c-.153.101-.322.22-.51.355a1.71 1.71 0 0 0-.392.404.742.742 0 0 0-.12.405c0 .236.121.355.34.355.326 0 .733-.237 1.209-.676.46-.443.744-1.035.8-1.67zm-12.073-3.78c-.375 0-.735.221-1.077.543a3.248 3.248 0 0 0-.787 1.136c-.172.408-.257.762-.257 1.069a.778.778 0 0 0 .102.423c.069.102.187.16.31.152.255 0 .53-.152.82-.491.307-.305.564-.713.752-1.203a2.334 2.334 0 0 1-.068-.628c0-.458.068-.797.205-1zm15.965 2.154c.41-.627.632-1.17.632-1.663 0-.406-.104-.61-.324-.61-.154 0-.308.121-.462.34-.152.22-.22.475-.22.78 0 .475.135.864.374 1.153zm2.649-4.492c-.528.459-.937.88-1.227 1.272-.103-.052-.154-.154-.154-.288 0-.153.137-.425.426-.781.274-.355.513-.542.717-.542.136 0 .222.12.24.339zm-28.174 5.509c-.372.34-.798.508-1.154.44a.794.794 0 0 1-.629-.254c-.152-.169-.219-.39-.219-.661 0-.067.016-.136.016-.203-.12.219-.273.406-.425.594-.305.389-.679.575-1.07.575-.254 0-.442-.068-.56-.22-.118-.135-.187-.323-.187-.56 0-.203.069-.474.17-.83.12-.373.17-.61.17-.745 0-.255-.102-.39-.323-.39-.169 0-.355.118-.543.356-.186.22-.476.643-.883 1.254-.192.33-.368.669-.526 1.016-.126 0-.252-.017-.374-.05-.119-.035-.186-.085-.186-.153 0-.017.119-.372.34-1.05.22-.678.34-1.17.34-1.475 0-.272-.085-.407-.273-.407-.305 0-.73.355-1.256 1.05-.527.696-.918 1.391-1.19 2.136a1.117 1.117 0 0 1-.39-.067c-.152-.051-.221-.103-.221-.153 0-.017.069-.22.188-.576.14-.396.265-.797.372-1.204.119-.44.188-.814.188-1.101.152-.153.305-.238.509-.238.186 0 .29.102.29.29 0 .168-.103.593-.29 1.218a7.76 7.76 0 0 1 1.138-1.458c.39-.406.78-.609 1.138-.609.39 0 .576.287.576.847 0 .458-.102.967-.323 1.526.61-1.101 1.206-1.66 1.8-1.66.407 0 .61.235.61.693 0 .205-.066.527-.203.967-.134.441-.203.729-.203.882 0 .253.119.372.322.372.426 0 .885-.508 1.376-1.56.018-.05.035-.119.052-.169.151-.457.356-.895.61-1.304.256-.39.494-.594.732-.594.151 0 .236.084.236.238 0 .101-.1.287-.288.609-.186.322-.373.678-.56 1.069-.187.406-.289.745-.289 1.05 0 .254.033.44.12.526.084.085.219.135.406.135.56 0 1.104-.56 1.664-1.661l.102.103c-.203.594-.509 1.067-.9 1.406zm.531-4.639c-.152.137-.306.205-.476.19-.291 0-.444-.122-.444-.358 0-.138.085-.273.255-.393a.887.887 0 0 1 .53-.171c.237 0 .357.102.357.325 0 .135-.068.272-.22.409zm35.068 37.346l-1.46 1.524.44 2.03-1.883-.897-1.8 1.05.272-2.064-1.562-1.387 2.054-.39.85-1.895 1.017 1.827zm-9.088 1.546l.392 2.034-1.885-.898-1.8 1.052.273-2.068-1.562-1.39 2.053-.39.85-1.9 1.017 1.832 2.09.203zm-7.66 0l.392 2.034-1.885-.898-1.8 1.052.273-2.068-1.562-1.39 2.053-.39.85-1.9 1.017 1.832 2.09.203zm-7.675 0l.407 2.034-1.885-.898-1.8 1.052.273-2.068-1.562-1.39 2.053-.39.85-1.9 1.017 1.832 2.07.203zm-7.662 0l.391 2.034-1.884-.898-1.8 1.052.273-2.068-1.562-1.39 2.053-.39.85-1.9 1.017 1.832 2.09.203z"/></defs><g><g transform="translate(-232 -4315)"><g/><g><g><use fill="#00718f" xlink:href="#ww1ta"/></g><g><use fill="#00718f" xlink:href="#ww1tb"/></g><g><use fill="#00718f" xlink:href="#ww1tc"/></g></g></g></g></svg>