<svg xmlns="http://www.w3.org/2000/svg" xmlns:xlink="http://www.w3.org/1999/xlink" width="124" height="106" viewBox="0 0 124 106"><defs><path id="z3ela" d="M693.57 2112.74v6.863c0 5.612 4.6 10.161 10.274 10.161 5.674 0 10.273-4.549 10.273-10.16v-6.864"/><path id="z3elb" d="M770.59 2112.74v6.863c0 5.612 4.6 10.161 10.274 10.161 5.674 0 10.273-4.549 10.273-10.16v-6.864"/><path id="z3elc" d="M689.68 2112.74v6.863c0 5.612 4.6 10.161 10.274 10.161 5.674 0 10.273-4.549 10.273-10.16v-6.864"/><path id="z3eld" d="M766.71 2112.74v6.863c0 5.612 4.6 10.161 10.274 10.161 5.674 0 10.273-4.549 10.273-10.16v-6.864"/><path id="z3ele" d="M780.309 2046.995c-1.748-3.739-5.542-5.365-9.71-5.365h-53.085c-4.156 0-7.924 1.6-9.685 5.314 0 0-24.509 32.793-24.509 35.854v14.418c0 7.683 8.04 15.532 15.835 15.532h89.893c7.769 0 12.404-7.81 12.404-15.532v-14.175c-.052-2.958-21.143-36.046-21.143-36.046z"/><path id="z3elf" d="M721.8 2041.648h46.222l-5.127-15.238H726.94l-5.14 15.238z"/><path id="z3elg" d="M717.92 2041.648h46.222l-5.127-15.238H723.06l-5.14 15.238z"/><path id="z3elh" d="M790.006 2068.93c-6.059-10.129-13.581-21.935-13.581-21.935-1.748-3.739-5.542-5.365-9.71-5.365H713.63c-4.156 0-7.924 1.6-9.685 5.314 0 0-8.856 11.857-15.925 21.973z"/><path id="z3eli" d="M776.429 2046.995c-1.748-3.739-5.542-5.365-9.71-5.365h-53.085c-4.156 0-7.924 1.6-9.685 5.314 0 0-24.509 32.793-24.509 35.854v14.418c0 7.683 8.04 15.532 15.835 15.532h89.893c7.769 0 12.404-7.81 12.404-15.532v-14.175c-.052-2.958-21.143-36.046-21.143-36.046z"/><path id="z3elj" d="M692.25 2091.195c0-2.808 2.301-5.085 5.14-5.085 2.839 0 5.14 2.277 5.14 5.085s-2.301 5.085-5.14 5.085c-2.839 0-5.14-2.277-5.14-5.085z"/><path id="z3elk" d="M774.41 2091.195c0-2.808 2.301-5.085 5.14-5.085 2.839 0 5.14 2.277 5.14 5.085s-2.301 5.085-5.14 5.085c-2.839 0-5.14-2.277-5.14-5.085z"/></defs><g><g transform="translate(-678 -2025)"><g><use fill="#bdd143" xlink:href="#z3ela"/></g><g><use fill="#bdd143" xlink:href="#z3elb"/></g><g><use fill="#fff" fill-opacity="0" stroke="#4096c6" stroke-linecap="round" stroke-linejoin="round" stroke-miterlimit="50" stroke-width=".81" xlink:href="#z3elc"/></g><g><use fill="#fff" fill-opacity="0" stroke="#4096c6" stroke-linecap="round" stroke-linejoin="round" stroke-miterlimit="50" stroke-width=".81" xlink:href="#z3eld"/></g><g><use fill="#69d8ff" xlink:href="#z3ele"/></g><g><use fill="#ffc440" xlink:href="#z3elf"/></g><g><use fill="#fff" fill-opacity="0" stroke="#4096c6" stroke-linecap="round" stroke-linejoin="round" stroke-miterlimit="50" stroke-width=".81" xlink:href="#z3elg"/></g><g><use fill="#fff" xlink:href="#z3elh"/></g><g><use fill="#fff" fill-opacity="0" stroke="#4096c6" stroke-linecap="round" stroke-linejoin="round" stroke-miterlimit="50" stroke-width=".81" xlink:href="#z3eli"/></g><g><use fill="#fff" fill-opacity="0" stroke="#4096c6" stroke-linecap="round" stroke-linejoin="round" stroke-miterlimit="50" stroke-width=".81" xlink:href="#z3elh"/></g><g><use fill="#ffc440" xlink:href="#z3elj"/></g><g><use fill="#ffc440" xlink:href="#z3elk"/></g><g><use fill="#fff" fill-opacity="0" stroke="#4096c6" stroke-linecap="round" stroke-linejoin="round" stroke-miterlimit="50" stroke-width=".81" xlink:href="#z3elj"/></g><g><use fill="#fff" fill-opacity="0" stroke="#4096c6" stroke-linecap="round" stroke-linejoin="round" stroke-miterlimit="50" stroke-width=".81" xlink:href="#z3elk"/></g></g></g></svg>