<svg xmlns="http://www.w3.org/2000/svg" xmlns:xlink="http://www.w3.org/1999/xlink" width="144" height="104" viewBox="0 0 144 104"><defs><path id="cxrda" d="M1160.332 2114.759a.912.912 0 0 1-1.286-.4l-48.111-93.987a.915.915 0 0 1 .398-1.287.912.912 0 0 1 1.286.399l48.111 93.987a.915.915 0 0 1-.398 1.288z"/><path id="cxrdb" d="M1159.042 2114.759a.912.912 0 0 1-1.286-.4l-48.111-93.987a.915.915 0 0 1 .398-1.287.912.912 0 0 1 1.286.399l48.111 93.987a.915.915 0 0 1-.398 1.288z"/><path id="cxrdc" d="M1090.77 2070.98c-.296 3.142-5.246 5.768-11.058 6.438-5.811.669-10.286-1.288-9.977-4.455"/><path id="cxrdd" d="M1130.087 2055.41c.836 2.858-7.238 9.116-18.167 13.274-10.929 4.159-20.314 5.15-21.15 2.305"/><path id="cxrde" d="M1165.43 2032.622c2.713 1.583 7.714-.863 11.713-5.15 3.998-4.287 4.744-9.013 2.031-10.622"/><path id="cxrdf" d="M1130.09 2055.412c1.826 2.343 11.404-.502 21.137-6.94 9.733-6.438 16.007-13.519 14.143-15.862"/><path id="cxrdg" d="M1115.749 2027.41c-19.89 10.158-36.81 26.213-46.029 45.526 5.323.966 12.664.142 21.047-1.996 2.417-25.402 24.802-43.401 24.982-43.53z"/><path id="cxrdh" d="M1115.76 2027.413l12.459 24.346 1.864 3.657c13.307-6.837 25.971-14.884 35.306-22.75-21.986-12.927-49.423-5.318-49.629-5.253z"/><path id="cxrdi" d="M1179.171 2016.814c-20.97-3.862-43.714.502-63.411 10.596.206 0 27.643-7.725 49.654 5.215 6.557-5.524 11.456-10.957 13.757-15.81z"/><path id="cxrdj" d="M1128.207 2051.757l-12.458-24.347c-.155.129-22.565 18.128-24.969 43.569 11.931-3.038 25.92-8.69 39.304-15.579z"/><path id="cxrdk" d="M1198.257 2098.615c3.857-9.18 3.395-18.784-.488-25.325-7.38 1.802-14.542 8.188-18.399 17.381-3.857 9.193-3.368 18.772.489 25.313 7.393-1.842 14.554-8.189 18.398-17.369z"/><path id="cxrdl" d="M1198.259 2098.615c-3.845 9.18-11.006 15.527-18.399 17.369 11.615 4.275 24.533-1.357 29.323-12.783 4.79-11.425-.244-24.603-11.426-29.911 3.96 6.54 4.359 16.145.502 25.325z"/><path id="cxrdm" d="M1167.503 2085.673c-4.93 11.786.597 25.343 12.355 30.307-3.857-6.54-4.332-16.132-.475-25.299 3.857-9.167 11.018-15.579 18.398-17.381-11.773-4.945-25.321.591-30.278 12.373z"/><path id="cxrdn" d="M1074.43 2103.98c10.71 8.188 16.586 0 16.586 0s5.991-7.842 16.585 0c10.595 7.84 16.586 0 16.586 0s6.917-8.19 14.747 0"/><path id="cxrdo" d="M1074.43 2112.19c10.71 8.188 16.586 0 16.586 0s5.991-7.842 16.585 0c10.595 7.84 16.586 0 16.586 0s6.917-8.19 14.747 0"/><path id="cxrdp" d="M1089.48 2070.98c-.296 3.142-5.246 5.768-11.058 6.438-5.811.669-10.286-1.288-9.977-4.455"/><path id="cxrdq" d="M1128.797 2055.41c.836 2.858-7.238 9.116-18.167 13.274-10.929 4.159-20.314 5.15-21.15 2.305"/><path id="cxrdr" d="M1164.15 2032.622c2.713 1.583 7.714-.863 11.713-5.15 3.998-4.287 4.744-9.013 2.031-10.622"/><path id="cxrds" d="M1128.8 2055.412c1.826 2.343 11.404-.502 21.137-6.94 9.733-6.438 16.007-13.519 14.143-15.862"/><path id="cxrdt" d="M1114.469 2027.41c-19.89 10.158-36.81 26.213-46.029 45.526 5.323.966 12.664.142 21.047-1.996 2.417-25.402 24.802-43.401 24.982-43.53z"/><path id="cxrdu" d="M1114.48 2027.413l12.459 24.346 1.864 3.657c13.307-6.837 25.971-14.884 35.306-22.75-21.986-12.927-49.423-5.318-49.629-5.253z"/><path id="cxrdv" d="M1177.891 2016.814c-20.97-3.862-43.714.502-63.411 10.596.206 0 27.643-7.725 49.654 5.215 6.557-5.524 11.456-10.957 13.757-15.81z"/><path id="cxrdw" d="M1126.927 2051.757l-12.458-24.347c-.155.129-22.565 18.128-24.969 43.569 11.931-3.038 25.92-8.69 39.304-15.579z"/><path id="cxrdx" d="M1195.687 2098.615c3.857-9.18 3.395-18.784-.488-25.325-7.38 1.802-14.542 8.188-18.399 17.381-3.857 9.193-3.368 18.772.489 25.313 7.393-1.842 14.554-8.189 18.398-17.369z"/><path id="cxrdy" d="M1195.689 2098.615c-3.845 9.18-11.006 15.527-18.399 17.369 11.633 4.355 24.626-1.262 29.439-12.727 4.813-11.465-.27-24.69-11.516-29.967 3.934 6.54 4.333 16.145.476 25.325z"/><path id="cxrdz" d="M1164.933 2085.673c-4.93 11.786.597 25.343 12.355 30.307-3.857-6.54-4.332-16.132-.475-25.299 3.857-9.167 11.018-15.579 18.398-17.381-11.773-4.945-25.321.591-30.278 12.373z"/><path id="cxrdA" d="M1073.14 2103.98c10.71 8.188 16.586 0 16.586 0s5.991-7.842 16.585 0c10.595 7.84 16.586 0 16.586 0s6.917-8.19 14.747 0"/><path id="cxrdB" d="M1073.14 2112.19c10.71 8.188 16.586 0 16.586 0s5.991-7.842 16.585 0c10.595 7.84 16.586 0 16.586 0s6.917-8.19 14.747 0"/></defs><g><g transform="translate(-1067 -2014)"><g><use fill="#ffc440" xlink:href="#cxrda"/></g><g><use fill="#fff" fill-opacity="0" stroke="#4096c6" stroke-linecap="round" stroke-linejoin="round" stroke-miterlimit="50" stroke-width=".88" xlink:href="#cxrdb"/></g><g><use fill="#ffc440" xlink:href="#cxrdc"/></g><g><use fill="#ffc440" xlink:href="#cxrdd"/></g><g><use fill="#ffc440" xlink:href="#cxrde"/></g><g><use fill="#ffc440" xlink:href="#cxrdf"/></g><g><use fill="#69d8ff" xlink:href="#cxrdg"/></g><g><use fill="#69d8ff" xlink:href="#cxrdh"/></g><g><use fill="#bdd143" xlink:href="#cxrdi"/></g><g><use fill="#bdd143" xlink:href="#cxrdj"/></g><g><use fill="#bdd143" xlink:href="#cxrdk"/></g><g><use fill="#ffc440" xlink:href="#cxrdl"/></g><g><use fill="#ffc440" xlink:href="#cxrdm"/></g><g><use fill="#69d8ff" xlink:href="#cxrdn"/></g><g><use fill="#69d8ff" xlink:href="#cxrdo"/></g><g><use fill="#fff" fill-opacity="0" stroke="#4096c6" stroke-linecap="round" stroke-linejoin="round" stroke-miterlimit="50" stroke-width=".88" xlink:href="#cxrdp"/></g><g><use fill="#fff" fill-opacity="0" stroke="#4096c6" stroke-linecap="round" stroke-linejoin="round" stroke-miterlimit="50" stroke-width=".88" xlink:href="#cxrdq"/></g><g><use fill="#fff" fill-opacity="0" stroke="#4096c6" stroke-linecap="round" stroke-linejoin="round" stroke-miterlimit="50" stroke-width=".88" xlink:href="#cxrdr"/></g><g><use fill="#fff" fill-opacity="0" stroke="#4096c6" stroke-linecap="round" stroke-linejoin="round" stroke-miterlimit="50" stroke-width=".88" xlink:href="#cxrds"/></g><g><use fill="#fff" fill-opacity="0" stroke="#4096c6" stroke-linecap="round" stroke-linejoin="round" stroke-miterlimit="50" stroke-width=".88" xlink:href="#cxrdt"/></g><g><use fill="#fff" fill-opacity="0" stroke="#c6405b" stroke-linecap="round" stroke-linejoin="round" stroke-miterlimit="50" stroke-width=".88" xlink:href="#cxrdu"/></g><g><use fill="#fff" fill-opacity="0" stroke="#4096c6" stroke-linecap="round" stroke-linejoin="round" stroke-miterlimit="50" stroke-width=".88" xlink:href="#cxrdv"/></g><g><use fill="#fff" fill-opacity="0" stroke="#129e79" stroke-linecap="round" stroke-linejoin="round" stroke-miterlimit="50" stroke-width=".88" xlink:href="#cxrdw"/></g><g><use fill="#fff" fill-opacity="0" stroke="#4096c6" stroke-linecap="round" stroke-linejoin="round" stroke-miterlimit="50" stroke-width=".88" xlink:href="#cxrdx"/></g><g><use fill="#fff" fill-opacity="0" stroke="#4096c6" stroke-linecap="round" stroke-linejoin="round" stroke-miterlimit="50" stroke-width=".88" xlink:href="#cxrdy"/></g><g><use fill="#fff" fill-opacity="0" stroke="#4096c6" stroke-linecap="round" stroke-linejoin="round" stroke-miterlimit="50" stroke-width=".88" xlink:href="#cxrdz"/></g><g><use fill="#fff" fill-opacity="0" stroke="#4096c6" stroke-linecap="round" stroke-linejoin="round" stroke-miterlimit="50" stroke-width=".88" xlink:href="#cxrdA"/></g><g><use fill="#fff" fill-opacity="0" stroke="#4096c6" stroke-linecap="round" stroke-linejoin="round" stroke-miterlimit="50" stroke-width=".88" xlink:href="#cxrdB"/></g></g></g></svg>