<svg xmlns="http://www.w3.org/2000/svg" xmlns:xlink="http://www.w3.org/1999/xlink" width="99" height="101" viewBox="0 0 99 101"><defs><path id="x8iia" d="M360.693 2041.61h21.65a6.571 6.571 0 0 1 6.493 6.494v72.233a6.584 6.584 0 0 1-6.494 6.559h-85.298a6.584 6.584 0 0 1-6.494-6.559v-72.169a6.571 6.571 0 0 1 6.494-6.493h21.662"/><path id="x8iib" d="M360.693 2041.61h19.052a6.571 6.571 0 0 1 6.493 6.494v72.233a6.584 6.584 0 0 1-6.493 6.559h-82.701a6.584 6.584 0 0 1-6.494-6.559v-72.169a6.571 6.571 0 0 1 6.494-6.493h21.662"/><path id="x8iic" d="M361.362 2054.73h13.117v59.052H302.31v-59.052h13.117"/><path id="x8iid" d="M302.68 2113.529l29.156-33.169h13.117l29.156 33.169H302.68z"/><path id="x8iie" d="M361.352 2050.789c0 13.779-22.961 36.74-22.961 36.74s-22.961-22.961-22.961-36.74c0-14.104 11.805-22.299 22.961-22.299 11.156 0 22.961 8.195 22.961 22.299z"/><path id="x8iif" d="M331.83 2051.46a6.56 6.56 0 1 1 13.12 0 6.56 6.56 0 0 1-13.12 0z"/><path id="x8iig" d="M338.39 2113.784v-9.844"/></defs><g><g transform="translate(-290 -2027)"><g><use fill="#bdd143" xlink:href="#x8iia"/></g><g><use fill="#fff" fill-opacity="0" stroke="#4096c6" stroke-linecap="round" stroke-linejoin="round" stroke-miterlimit="50" stroke-width=".97" xlink:href="#x8iib"/></g><g><use fill="#fff" xlink:href="#x8iic"/><use fill="#fff" fill-opacity="0" stroke="#4096c6" stroke-linecap="round" stroke-linejoin="round" stroke-miterlimit="50" stroke-width=".97" xlink:href="#x8iic"/></g><g><use fill="#ffc440" xlink:href="#x8iid"/><use fill="#fff" fill-opacity="0" stroke="#4096c6" stroke-linecap="round" stroke-linejoin="round" stroke-miterlimit="50" stroke-width=".97" xlink:href="#x8iid"/></g><g><use fill="#69d8ff" xlink:href="#x8iie"/></g><g><use fill="#fff" xlink:href="#x8iif"/><use fill="#fff" fill-opacity="0" stroke="#4096c6" stroke-linecap="round" stroke-linejoin="round" stroke-miterlimit="50" stroke-width=".97" xlink:href="#x8iif"/></g><g><use fill="#fff" fill-opacity="0" stroke="#4096c6" stroke-linecap="round" stroke-linejoin="round" stroke-miterlimit="50" stroke-width=".97" xlink:href="#x8iie"/></g><g><use fill="#fff" fill-opacity="0" stroke="#4096c6" stroke-linecap="round" stroke-linejoin="round" stroke-miterlimit="50" stroke-width=".97" xlink:href="#x8iif"/></g><g><use fill="#fff" xlink:href="#x8iig"/><use fill="#fff" fill-opacity="0" stroke="#4096c6" stroke-linecap="round" stroke-linejoin="round" stroke-miterlimit="50" stroke-width=".97" xlink:href="#x8iig"/></g></g></g></svg>