<svg xmlns="http://www.w3.org/2000/svg" xmlns:xlink="http://www.w3.org/1999/xlink" width="114" height="115" viewBox="0 0 114 115">
    <defs>
        <path id="hxoza" d="M1484.68 2069.53c0-31 25.13-56.13 56.13-56.13 31 0 56.13 25.13 56.13 56.13 0 31-25.13 56.13-56.13 56.13-31 0-56.13-25.13-56.13-56.13z"/><path id="hxozb" d="M1517.84 2069.32c0-13.476 10.924-24.4 24.4-24.4 13.476 0 24.4 10.924 24.4 24.4 0 13.476-10.924 24.4-24.4 24.4-13.476 0-24.4-10.924-24.4-24.4z"/><path id="hxozc" d="M1539.944 2074.12l34.221 34.337a7.525 7.525 0 0 1 0 10.645 7.525 7.525 0 0 1-11.556-1.143l-19.891-29.2a26.695 26.695 0 0 0-3.352-4.084l-5.046-4.777"/><path id="hxozd" d="M1527.52 2073.874l-2.568-2.812a6.266 6.266 0 0 0-5.958-1.643l-2.286.577a11.082 11.082 0 0 1-10.542-2.915l-5.304-5.598a56.063 56.063 0 0 1-16.282-42.953l49.232 49.425"/><path id="hxoze" d="M1572.448 2017.74l-31.05 31.036a6.305 6.305 0 0 0 0 8.86l8.874 8.874a6.292 6.292 0 0 0 8.873 0l31.036-31.037"/><path id="hxozf" d="M1584.543 2029.28l-24.603 24.616"/>
        <path id="hxozg" d="M1578.636 2023.38l-24.616 24.603"/>
        <path id="hxozh" d="M1542.884 2059.12l-11.377 11.39c-1.285 1.284-6.793 6.69-8.167 7.859l-31.499 26.824a7.705 7.705 0 0 0-.45 11.339 7.705 7.705 0 0 0 11.34-.45l26.81-31.486c1.17-1.386 6.575-6.895 7.86-8.18l11.39-11.39"/></defs><g><g transform="translate(-1484 -2012)"><g><use fill="#7be0ff" xlink:href="#hxoza"/></g><g>
    <use fill="#fff" fill-opacity="0" stroke="#4096c6" stroke-linecap="round" stroke-linejoin="round" stroke-miterlimit="50" stroke-width=".81" xlink:href="#hxoza"/></g><g transform="rotate(-90 1542 2069)"><use fill="#69d8ff" xlink:href="#hxozb"/></g><g transform="rotate(-90 1542 2069)"><use fill="#fff" fill-opacity="0" stroke="#4096c6" stroke-linecap="round" stroke-linejoin="round" stroke-miterlimit="50" stroke-width=".81" xlink:href="#hxozb"/></g><g><use fill="#fff" xlink:href="#hxozc"/><use fill="#fff" fill-opacity="0" stroke="#4096c6" stroke-linecap="round" stroke-linejoin="round" stroke-miterlimit="50" stroke-width=".97" xlink:href="#hxozc"/></g><g><use fill="#fff" xlink:href="#hxozd"/><use fill="#fff" fill-opacity="0" stroke="#4096c6" stroke-linecap="round" stroke-linejoin="round" stroke-miterlimit="50" stroke-width=".97" xlink:href="#hxozd"/></g><g><use fill="#fff" xlink:href="#hxoze"/><use fill="#fff" fill-opacity="0" stroke="#4096c6" stroke-linecap="round" stroke-linejoin="round" stroke-miterlimit="50" stroke-width=".97" xlink:href="#hxoze"/></g><g><use fill="#fff" xlink:href="#hxozf"/><use fill="#fff" fill-opacity="0" stroke="#4096c6" stroke-linecap="round" stroke-linejoin="round" stroke-miterlimit="50" stroke-width=".97" xlink:href="#hxozf"/></g><g><use fill="#fff" xlink:href="#hxozg"/><use fill="#fff" fill-opacity="0" stroke="#4096c6" stroke-linecap="round" stroke-linejoin="round" stroke-miterlimit="50" stroke-width=".97" xlink:href="#hxozg"/></g><g><use fill="#fff" xlink:href="#hxozh"/><use fill="#fff" fill-opacity="0" stroke="#4096c6" stroke-linecap="round" stroke-linejoin="round" stroke-miterlimit="50" stroke-width=".97" xlink:href="#hxozh"/></g></g></g></svg>