<svg xmlns="http://www.w3.org/2000/svg" xmlns:xlink="http://www.w3.org/1999/xlink" width="20" height="28" viewBox="0 0 20 28"><defs><path id="97hia" d="M252.936 955.03h2.644v-1.253h-2.644v-9.569l8.592-2.714v20.599l-8.592 2.714zm9.914-14.404c0-.346-.296-.626-.66-.626h-16.524c-.365 0-.66.28-.66.626v21.283s-.041.63.103.905c.145.275.556.347.556.347a.68.68 0 0 0 .468-.183.61.61 0 0 0 .194-.443v-21.283h11.79l-6.05 1.91a.63.63 0 0 0-.453.594v21.91c0 .2.103.39.275.507a.686.686 0 0 0 .595.086l9.812-3.098s.278-.162.416-.474c.138-.312.138-.778.138-.778z"/></defs><g><g transform="translate(-244 -939)"><g><use fill="#007e9d" xlink:href="#97hia"/><use fill="#fff" fill-opacity="0" stroke="#212121" stroke-miterlimit="50" xlink:href="#97hia"/></g></g></g></svg>